<svg width="223" height="50" viewBox="0 0 223 50" fill="none" xmlns="http://www.w3.org/2000/svg">
<path fill-rule="evenodd" clip-rule="evenodd" d="M68.4093 27.63C67.0233 25.735 64.7583 24.2098 61.3843 24.2098C56.0693 24.2098 51.6783 27.8611 51.6323 33.5923C51.6323 39.2772 55.9763 42.9747 61.3383 42.9747C64.2033 42.9747 66.5603 41.9117 68.3633 40.2478V49.4454C68.3633 49.7689 68.1323 50 67.8084 50H0.883538C0.328942 50 0.144036 49.3529 0.560036 48.9832L25.3796 30.8191V42.2814C25.3796 42.5125 25.5644 42.6512 25.7493 42.6512H35.2243C38.6903 42.6512 40.4933 40.4789 40.4933 37.7058C40.4933 35.7646 39.3843 34.1469 37.8583 33.4998C37.6273 33.4074 37.6273 33.0839 37.8583 32.9914C39.1993 32.3906 40.1693 31.004 40.1693 29.109C40.1693 26.7056 38.4133 24.4871 34.9473 24.4871H34.0683L67.3923 0.129719C67.8083 -0.19378 68.4093 0.129719 68.4093 0.638119V27.63ZM47.7953 42.6512C47.9803 42.6512 48.1193 42.5125 48.1193 42.3276V24.8107C48.1193 24.6258 47.9803 24.4871 47.7953 24.4871H44.6063C44.4213 24.4871 44.2833 24.6258 44.2833 24.8107V42.3276C44.2833 42.5125 44.4213 42.6512 44.6063 42.6512H47.7953ZM34.1153 31.6973H29.6313C29.4474 31.6973 29.2621 31.5586 29.2621 31.3737V28.0923C29.2621 27.9998 29.3543 27.9073 29.4474 27.9073H34.1153C35.4093 27.9073 36.2413 28.6931 36.2413 29.8023C36.2413 30.9578 35.4093 31.6973 34.1153 31.6973ZM29.6313 39.2773H34.3004C35.7324 39.2773 36.6104 38.4916 36.6104 37.1975C36.6104 36.042 35.7794 35.1176 34.3004 35.1176H29.6313C29.4474 35.1176 29.2621 35.2563 29.2621 35.4873V38.9076C29.2621 39.0924 29.4474 39.2773 29.6313 39.2773ZM61.3846 27.6301C63.1407 27.6301 64.6197 28.5544 65.4977 29.7099C65.5907 29.8486 65.8217 29.941 66.0067 29.8948L68.4557 28.5544V32.6679H60.8297C60.6447 32.6679 60.4597 32.8066 60.4597 33.0377V35.6259C60.4597 35.8108 60.5987 35.9957 60.8297 35.9957H64.9437C65.0817 35.9957 65.2206 36.1343 65.2206 36.273V38.0293C65.2206 38.1218 65.1747 38.2142 65.1287 38.2604C64.3427 38.9075 62.9097 39.5545 61.3846 39.5545C58.0567 39.5545 55.6537 37.0125 55.6537 33.5923C55.6537 30.1721 58.0567 27.6301 61.3846 27.6301ZM71.2757 33.5922C71.2757 27.9997 75.2967 24.2098 80.4727 24.2098C83.8467 24.2098 86.0197 25.9199 87.3137 27.9997C87.4057 28.1384 87.3597 28.3695 87.1747 28.4157L85.0947 29.525C84.9567 29.6174 84.7717 29.5712 84.7247 29.4325C83.8467 28.046 82.2297 27.0291 80.4727 27.0291C77.0067 27.0291 74.4187 29.7561 74.4187 33.5922C74.4187 37.3822 77.0067 40.1553 80.4727 40.1553C82.2297 40.1553 83.8467 39.1385 84.7247 37.7519C84.8177 37.6133 84.9567 37.5671 85.0947 37.6595L87.1747 38.7225C87.3597 38.815 87.4057 38.9998 87.3137 39.1847C85.9727 41.2646 83.8007 43.0209 80.4727 43.0209C75.2967 42.9747 71.2757 39.1385 71.2757 33.5922ZM95.5864 24.5333C91.7044 25.5501 89.1154 29.0628 89.1154 33.5922C89.1154 38.9998 92.8134 42.9747 98.0824 43.0209C102.565 43.0209 105.939 40.1091 106.817 35.8569C108.25 28.9703 102.195 22.777 95.5864 24.5333ZM98.0364 27.0291C101.548 27.0291 103.859 29.8485 103.859 33.5922C103.859 37.2897 101.594 40.1553 98.0364 40.1553C94.4774 40.1553 92.2124 37.3359 92.2124 33.5922C92.2124 29.8485 94.4774 27.0291 98.0364 27.0291ZM125.859 42.4201V28.6006L120.359 42.5125C120.359 42.5587 120.267 42.6049 120.221 42.6049H119.065C119.019 42.6049 118.926 42.5587 118.926 42.5125L113.38 28.6006V42.4201C113.38 42.5587 113.288 42.6511 113.149 42.6511H110.376C110.237 42.6511 110.145 42.5587 110.145 42.4201V24.672C110.145 24.5333 110.237 24.4409 110.376 24.4409H114.351C114.536 24.4409 114.674 24.5333 114.767 24.7182L119.62 37.1973L124.427 24.7182C124.473 24.5333 124.658 24.4409 124.843 24.4409H128.817C128.956 24.4409 129.048 24.5333 129.048 24.672V42.4201C129.048 42.5587 128.956 42.6511 128.817 42.6511H126.044C125.998 42.6511 125.859 42.5587 125.859 42.4201ZM157.288 24.8107V42.3277C157.288 42.5125 157.427 42.6512 157.612 42.5125H169.398C169.583 42.5125 169.721 42.3739 169.721 42.189V40.0629C169.721 39.8781 169.583 39.7394 169.398 39.7394H160.801C160.616 39.7394 160.477 39.6007 160.477 39.4159V35.0251C160.477 34.8402 160.616 34.7015 160.801 34.7015H169.213C169.398 34.7015 169.536 34.5629 169.536 34.378V32.2519C169.536 32.067 169.398 31.9284 169.213 31.9284H160.801C160.616 31.9284 160.477 31.7897 160.477 31.6049V27.5838C160.477 27.3989 160.616 27.2603 160.801 27.2603H169.398C169.583 27.2603 169.721 27.1216 169.721 26.9367V24.8107C169.721 24.6258 169.583 24.4871 169.398 24.4871H157.612C157.427 24.4871 157.288 24.6258 157.288 24.8107ZM184.511 42.4663L180.675 35.9957C180.629 35.9032 180.49 35.857 180.398 35.857H177.717C177.532 35.857 177.394 35.9957 177.394 36.1805V42.3277C177.394 42.5125 177.255 42.6512 177.07 42.6512H174.574C174.389 42.6512 174.251 42.5125 174.251 42.3277V24.8107C174.251 24.6258 174.389 24.4871 174.574 24.4871H182.247C185.852 24.4871 188.209 26.7981 188.209 30.1721C188.209 33.1763 186.36 34.8864 184.326 35.3948C184.095 35.441 184.003 35.6721 184.095 35.9032C184.835 37.1049 187.146 40.8024 188.024 42.1428C188.163 42.3739 188.024 42.6512 187.747 42.6512H184.835C184.696 42.6512 184.604 42.605 184.511 42.4663ZM184.927 30.1259C184.927 28.3695 183.633 27.2603 181.831 27.2603H177.763C177.578 27.2603 177.44 27.3989 177.44 27.5838V32.7141C177.44 32.899 177.578 33.0376 177.763 33.0376H181.831C183.633 33.0376 184.927 31.9284 184.927 30.1259ZM209.747 24.8107V42.3277C209.747 42.5125 209.885 42.6512 210.07 42.7436H221.902C222.087 42.7436 222.226 42.605 222.226 42.4201V40.2478C222.226 40.0629 222.087 39.9243 221.902 39.9243H213.259C213.075 39.9243 212.936 39.7856 212.936 39.6007V35.1637C212.936 34.9788 213.075 34.8402 213.259 34.8402H221.671C221.856 34.8402 221.995 34.7015 221.995 34.5167V32.3444C221.995 32.1595 221.856 32.0208 221.671 32.0208H213.259C213.075 32.0208 212.936 31.8822 212.936 31.6973V27.63C212.936 27.4451 213.075 27.3065 213.259 27.3065H221.902C222.087 27.3065 222.226 27.1678 222.226 26.983V24.8107C222.226 24.6258 222.087 24.4871 221.902 24.4871H210.07C209.885 24.4871 209.747 24.6258 209.747 24.8107ZM190.521 33.4998C190.521 27.9073 194.542 24.1174 199.718 24.1174C203.092 24.1174 205.265 25.8275 206.559 27.9073C206.651 28.046 206.605 28.2771 206.42 28.3233L204.34 29.4325C204.202 29.525 204.017 29.4788 203.97 29.3401C203.092 27.9535 201.475 26.9367 199.718 26.9367C196.252 26.9367 193.664 29.6636 193.664 33.4998C193.664 37.2898 196.252 40.0629 199.718 40.0629C201.475 40.0629 203.092 39.0461 203.97 37.6595C204.063 37.5209 204.202 37.4746 204.34 37.5671L206.42 38.6301C206.605 38.7226 206.651 38.9074 206.559 39.0923C205.218 41.1722 203.046 42.9285 199.718 42.9285C194.542 42.8823 190.521 39.0923 190.521 33.4998ZM149.431 28.6006V42.4201C149.431 42.5587 149.524 42.6511 149.616 42.6511H152.389C152.528 42.6511 152.62 42.5587 152.62 42.4201V24.672C152.62 24.5333 152.528 24.4409 152.389 24.4409H148.414C148.229 24.4409 148.045 24.5333 147.998 24.7182L143.192 37.1973L138.339 24.7182C138.246 24.5333 138.107 24.4409 137.923 24.4409H133.948C133.809 24.4409 133.717 24.5333 133.717 24.672V42.4201C133.717 42.5587 133.809 42.6511 133.948 42.6511H136.721C136.86 42.6511 136.952 42.5587 136.952 42.4201V28.6006L142.498 42.5125C142.498 42.5587 142.591 42.6049 142.637 42.6049H143.792C143.839 42.6049 143.931 42.5587 143.931 42.5125L149.431 28.6006Z" fill="black"/>
</svg>
