<svg width="189" height="60" viewBox="0 0 189 60" fill="none" xmlns="http://www.w3.org/2000/svg">
<path fill-rule="evenodd" clip-rule="evenodd" d="M124.667 30C124.667 46.5686 111.235 60 94.6667 60C78.0987 60 64.6667 46.5686 64.6667 30C64.6667 13.4314 78.0987 0 94.6667 0C111.235 0 124.667 13.4314 124.667 30ZM92.6667 7C92.6667 5.8955 93.5627 5 94.6667 5C95.7707 5 96.6667 5.8955 96.6667 7V53C96.6667 54.1045 95.7707 55 94.6667 55C93.5627 55 92.6667 54.1045 92.6667 53V7ZM128.667 0H158.667C175.235 0 188.667 13.4314 188.667 30V60H160.667V7C160.667 5.8955 159.771 5 158.667 5C157.563 5 156.667 5.8955 156.667 7V60H128.667V0ZM60.6667 0.0655518C45.0307 1.09465 32.6667 14.1035 32.6667 30V60H60.6667V0.0655518ZM28.6667 59.9345V0.0655518C13.0306 1.09465 0.666687 14.1035 0.666687 30C0.666687 45.8965 13.0306 58.905 28.6667 59.9345Z" fill="black"/>
</svg>
