<svg width="132" height="132" viewBox="0 0 132 132" fill="none" xmlns="http://www.w3.org/2000/svg">
<path fill-rule="evenodd" clip-rule="evenodd" d="M66 132C102.451 132 132 102.451 132 66C132 29.5492 102.451 0 66 0C29.5492 0 0 29.5492 0 66C0 102.451 29.5492 132 66 132ZM79.1666 67.7781L62.941 81.4288C61.3923 82.7355 59 81.6554 59 79.6534V52.3479C59 50.3459 61.3923 49.2658 62.941 50.5686L79.1666 64.2194C79.428 64.4394 79.6378 64.7123 79.7817 65.0195C79.9255 65.3266 80 65.6607 80 65.9987C80 66.3368 79.9255 66.6708 79.7817 66.978C79.6378 67.2851 79.428 67.558 79.1666 67.7781Z" fill="white"/>
</svg>
